<svg width="25" height="25" viewBox="0 0 25 25" fill="none" xmlns="http://www.w3.org/2000/svg">
<path d="M7.29169 4.6875H17.7084V9.375C17.7084 10.7563 17.1596 12.0811 16.1829 13.0578C15.2061 14.0346 13.8814 14.5833 12.5 14.5833C11.1187 14.5833 9.79392 14.0346 8.81717 13.0578C7.84042 12.0811 7.29169 10.7563 7.29169 9.375V4.6875Z" stroke="#8E8E93" stroke-width="1.77083" stroke-linecap="round" stroke-linejoin="round"/>
<path d="M7.29169 6.77051H4.16669V8.12467C4.19378 9.01818 4.56786 9.86599 5.20961 10.4883C5.85135 11.1106 6.71027 11.4584 7.60419 11.458" stroke="#8E8E93" stroke-width="1.77083" stroke-linecap="round" stroke-linejoin="round"/>
<path d="M17.7083 6.77051H20.8333V8.12467C20.8062 9.01818 20.4321 9.86599 19.7904 10.4883C19.1486 11.1106 18.2897 11.4584 17.3958 11.458" stroke="#8E8E93" stroke-width="1.77083" stroke-linecap="round" stroke-linejoin="round"/>
<path d="M9.89581 20.833H15.1041" stroke="#8E8E93" stroke-width="1.77083" stroke-linecap="round" stroke-linejoin="round"/>
<path d="M12.5 15.1045V18.2295" stroke="#8E8E93" stroke-width="1.77083" stroke-linecap="round" stroke-linejoin="round"/>
</svg>
