<svg width="25" height="25" viewBox="0 0 25 25" fill="none" xmlns="http://www.w3.org/2000/svg">
<path d="M18.125 4.6875H6.875C4.80393 4.6875 3.125 6.36643 3.125 8.4375V16.5625C3.125 18.6336 4.80393 20.3125 6.875 20.3125H18.125C20.1961 20.3125 21.875 18.6336 21.875 16.5625V8.4375C21.875 6.36643 20.1961 4.6875 18.125 4.6875Z" stroke="#8E8E93" stroke-width="1.77083" stroke-linecap="round" stroke-linejoin="round"/>
<path d="M8.64585 11.3538C9.56633 11.3538 10.3125 10.6076 10.3125 9.68717C10.3125 8.7667 9.56633 8.02051 8.64585 8.02051C7.72538 8.02051 6.97919 8.7667 6.97919 9.68717C6.97919 10.6076 7.72538 11.3538 8.64585 11.3538Z" stroke="#8E8E93" stroke-width="1.77083" stroke-linecap="round" stroke-linejoin="round"/>
<path d="M4.6875 17.7087L9.89583 12.5003L13.0208 15.6253L16.1458 12.292L20.3125 16.2503" stroke="#8E8E93" stroke-width="1.77083" stroke-linecap="round" stroke-linejoin="round"/>
</svg>
